<svg id="Capa_1" data-name="Capa 1" xmlns="http://www.w3.org/2000/svg" viewBox="0 0 117.25 117.42"><defs><style>.cls-1{fill:#8ec649;}.cls-2{fill:#4a3f40;}</style></defs><title>logo</title><path class="cls-1" d="M21.69,105c-2.92-3.43-6.07-6.69-8.73-10.31-8.77-11.9-12-25.35-10.79-40A56.39,56.39,0,0,1,14.82,23.68,54.06,54.06,0,0,1,32,9.51c5-2.64,10-5.06,15.55-6,7.43-1.31,15-2.36,22.51-.84C86.9,6,100.44,14.18,109.92,29A56.92,56.92,0,0,1,118.35,70a61.91,61.91,0,0,1-6,17.79c-3,5.86-6.67,11.51-11.9,15.85-.25.21-.22.76-.32,1.16l0-.1-1,.37H81.3c2.31-2,4.79-3.57,6.57-5.75a12.46,12.46,0,0,1,7.52-4.5,20.52,20.52,0,0,0,12.4-8.35c3.58-4.92,7.13-9.77,8.27-15.94.56-3,1.43-5.87,1.83-8.86.26-2-.39-3.57-3-3.47-4.25.15-8.51,0-12.83,0l-.91-5.48H16.57C18,72.31,20.74,91,37.41,105ZM91.13,21.56l-.89-.39c-3.79,3.72-8.53,5.25-13.55,5.89-3.77.48-7.59.51-11.38.78-6.11.43-12.21.89-17.77,3.88A26.94,26.94,0,0,0,35.19,44.34c.39.28.57.5.68.47a5.78,5.78,0,0,0,.94-.45c5-2.58,9.92-5.19,14.93-7.69a7.65,7.65,0,0,1,2.7-.22C48.35,39.18,42.62,42.06,37.57,47c1.1.49,1.87,1.13,2.64,1.14,7.32.11,14.66.55,21.93,0,6.92-.51,13.61-2.66,18.6-7.85a51.36,51.36,0,0,0,7.34-9.92C89.59,27.72,90.15,24.52,91.13,21.56Z" transform="translate(-1.91 -1.88)"/><path class="cls-2" d="M21.69,105H37.41C20.74,91,18,72.31,16.57,52.72H101.1L102,58.2c4.32,0,8.58.11,12.83,0,2.66-.1,3.31,1.49,3,3.47-.4,3-1.27,5.9-1.83,8.86-1.14,6.17-4.69,11-8.27,15.94a20.52,20.52,0,0,1-12.4,8.35,12.46,12.46,0,0,0-7.52,4.5c-1.78,2.18-4.26,3.78-6.57,5.75H99.17l1-.37,0,.1,3.92.46a26.83,26.83,0,0,1-11.77,9c-2,.75-4.54.32-6.83.43-1.2.06-2.4.15-3.59.23q-20-.09-40-.15c-.47,0-.94.4-1.41.61-2.65-.23-5.34-.86-7.95-.61-5.14.5-9.15-1.6-12.86-4.68-1.66-1.38-3.14-3-5.21-5Zm91.66-42.7c-3,0-5.92.16-8.77-.06-2.4-.18-3,.71-3.41,3-1.1,6.42-2.58,12.79-4,19.16-.41,1.83-1.1,3.61-1.76,5.72C103.65,88.19,113.89,72.71,113.35,62.34Z" transform="translate(-1.91 -1.88)"/><path class="cls-1" d="M40.44,115.35c.47-.21.94-.61,1.41-.61q20,0,40,.15c-5.22,2.87-11,3.51-16.77,4.16-8.18.93-16-.91-23.84-3.09A3.15,3.15,0,0,1,40.44,115.35Z" transform="translate(-1.91 -1.88)"/><path class="cls-1" d="M113.35,62.34c.54,10.37-9.7,25.85-17.93,27.84.66-2.11,1.35-3.89,1.76-5.72,1.41-6.37,2.89-12.74,4-19.16.39-2.31,1-3.2,3.41-3C107.43,62.5,110.3,62.34,113.35,62.34Z" transform="translate(-1.91 -1.88)"/></svg>